<svg width="20" height="20" viewBox="0 0 20 20" fill="none" xmlns="http://www.w3.org/2000/svg">
<path d="M7.24512 8.50241C6.90701 8.16914 6.39989 8.16914 6.06178 8.50241C5.72373 8.83564 5.72373 9.33553 6.06178 9.6688L9.52717 13.3346C9.69623 13.5012 9.94978 13.5845 10.1188 13.5845C10.3724 13.5845 10.626 13.5012 10.7105 13.2513L18.9936 3.00372C19.2472 2.67046 19.2472 2.08727 18.8246 1.83732C18.571 1.58738 18.0639 1.58738 17.7258 2.00395L16.0353 4.08679C14.5139 2.58714 12.3164 1.67069 10.1188 1.67069C5.47015 1.67069 1.66667 5.41981 1.66667 10.0021C1.66667 14.5843 5.47015 18.3334 10.1188 18.3334C14.7676 18.3334 18.571 14.5843 18.571 10.0021C18.571 9.25225 18.4865 8.50241 18.233 7.75258C18.0639 7.33603 17.6413 7.08608 17.2187 7.16942C16.7961 7.25269 16.5425 7.75258 16.627 8.16914C16.7961 8.75236 16.8806 9.41886 16.8806 10.0021C16.8806 13.6679 13.8378 16.6671 10.1188 16.6671C6.39989 16.6671 3.35711 13.6679 3.35711 10.0021C3.35711 6.33625 6.39989 3.33697 10.1188 3.33697C11.9783 3.33697 13.6688 4.08679 15.0211 5.41981L10.1188 11.5017L7.24512 8.50241Z" fill="#28DE66"/>
</svg>
