<svg width="36" height="36" viewBox="0 0 36 36" fill="none" xmlns="http://www.w3.org/2000/svg">
<path d="M33.0008 22.9502C32.1008 22.9502 31.5008 23.5502 31.5008 24.4502V28.5002C31.5008 30.1502 30.1508 31.6502 28.3508 31.6502H24.3008C23.4008 31.6502 22.8008 32.2502 22.8008 33.1502C22.8008 34.0502 23.4008 34.6502 24.3008 34.6502H28.3508C31.6508 34.6502 34.5008 31.9502 34.5008 28.5002V24.4502C34.5008 23.5502 33.9008 22.9502 33.0008 22.9502Z" fill="#464646"/>
<path d="M11.7 31.4998H7.65C5.85 31.4998 4.5 30.1498 4.5 28.3498V24.2998C4.5 23.3998 3.9 22.7998 3 22.7998C2.1 22.7998 1.5 23.3998 1.5 24.2998V28.3498C1.5 31.7998 4.2 34.4998 7.65 34.4998H11.7C12.6 34.4998 13.2 33.8998 13.2 32.9998C13.2 32.0998 12.45 31.4998 11.7 31.4998Z" fill="#464646"/>
<path d="M3 13.2C3.9 13.2 4.5 12.6 4.5 11.7V7.65C4.5 5.85 5.85 4.5 7.65 4.5H11.7C12.6 4.5 13.2 3.9 13.2 3C13.2 2.1 12.6 1.5 11.7 1.5H7.65C4.2 1.5 1.5 4.2 1.5 7.65V11.7C1.5 12.45 2.1 13.2 3 13.2Z" fill="#464646"/>
<path d="M28.3508 1.5H24.3008C23.4008 1.5 22.8008 2.1 22.8008 3C22.8008 3.9 23.4008 4.5 24.3008 4.5H28.3508C30.1508 4.5 31.5008 5.85 31.5008 7.65V11.7C31.5008 12.6 32.1008 13.2 33.0008 13.2C33.9008 13.2 34.5008 12.6 34.5008 11.7V7.65C34.5008 4.2 31.8008 1.5 28.3508 1.5Z" fill="#464646"/>
<path d="M27.2992 14.85C28.1992 14.85 28.7992 14.25 28.7992 13.35V10.95C28.7992 9.45 27.5992 8.25 26.0992 8.25H9.89922C8.39922 8.25 7.19922 9.45 7.19922 10.95V13.5C7.19922 14.4 7.79922 15 8.69922 15C9.59922 15 10.1992 14.4 10.1992 13.5V11.25H13.6492V25.8H11.9992C11.0992 25.8 10.4992 26.4 10.4992 27.3C10.4992 28.2 11.0992 28.8 11.9992 28.8H23.9992C24.8992 28.8 25.4992 28.2 25.4992 27.3C25.4992 26.4 24.8992 25.8 23.9992 25.8H22.1992V11.25H25.6492V13.35C25.7992 14.25 26.3992 14.85 27.2992 14.85ZM19.1992 25.8H16.6492V11.25H19.1992V25.8Z" fill="#464646"/>
</svg>
