<svg width="36" height="36" viewBox="0 0 36 36" fill="none" xmlns="http://www.w3.org/2000/svg">
<path d="M22.3488 20.1C23.2488 19.05 23.8488 17.7 23.8488 16.35C23.8488 13.05 21.1488 10.5 17.9988 10.5C14.8488 10.5 12.1488 13.05 12.1488 16.2C12.1488 17.7 12.7488 19.05 13.6488 19.95C11.6988 21 10.1988 22.5 9.29876 24.6C8.84876 25.65 8.99876 27 9.59876 28.05C10.3488 29.1 11.5488 29.7 12.7488 29.7H23.0988C24.2988 29.7 25.4988 29.1 26.2488 28.05C26.9988 27 26.9988 25.8 26.5488 24.6C25.7988 22.65 24.2988 21 22.3488 20.1ZM15.1488 16.2C15.1488 14.7 16.4988 13.5 17.9988 13.5C19.4988 13.5 20.8488 14.7 20.8488 16.35C20.8488 18 19.4988 19.05 17.9988 19.05C16.4988 19.05 15.1488 17.85 15.1488 16.2ZM23.8488 26.4C23.6988 26.55 23.3988 26.7 23.2488 26.7H12.7488C12.4488 26.7 12.2988 26.55 12.1488 26.4C11.9988 26.4 11.9988 26.1 11.9988 25.8C13.0488 23.4 15.2988 21.9 17.9988 21.9C20.6988 21.9 22.9488 23.4 23.9988 25.8C23.9988 26.1 23.9988 26.4 23.8488 26.4Z" fill="#464646"/>
<path d="M10.9491 18.9C10.9491 18.15 10.3491 17.4 9.44905 17.4H4.49905C5.09905 15.9 6.59905 15 8.24905 15C10.7991 15 12.7491 13.05 12.7491 10.5C12.7491 7.95 10.6491 6 8.24905 6C5.84905 6 3.74905 7.95 3.74905 10.5C3.74905 11.4 4.04905 12.3 4.64905 13.05C3.29905 13.8 2.24905 14.85 1.79905 16.2C1.34905 17.1 1.49905 18.15 1.94905 19.05C2.54905 19.95 3.44905 20.4 4.49905 20.4H9.29905C10.1991 20.4 10.9491 19.8 10.9491 18.9ZM6.74905 10.5C6.74905 9.6 7.49905 9 8.24905 9C8.99905 9 9.74905 9.75 9.74905 10.5C9.74905 11.4 8.99905 12 8.24905 12C7.49905 12 6.74905 11.25 6.74905 10.5Z" fill="#464646"/>
<path d="M34.2 16.1996C33.6 14.8496 32.55 13.6496 31.35 12.8996C31.8 12.1496 32.25 11.2496 32.25 10.3496C32.25 7.94961 30.15 5.84961 27.75 5.84961C25.35 5.84961 23.25 7.79961 23.25 10.3496C23.25 12.8996 25.35 14.8496 27.75 14.8496C29.4 14.8496 30.9 15.7496 31.35 17.3996H26.55C25.65 17.3996 25.05 17.9996 25.05 18.8996C25.05 19.6496 25.65 20.3996 26.55 20.3996H31.35C32.4 20.3996 33.3 19.9496 33.9 19.0496C34.5 18.1496 34.65 17.0996 34.2 16.1996ZM27.75 8.99961C28.65 8.99961 29.25 9.74961 29.25 10.4996C29.25 11.3996 28.5 11.9996 27.75 11.9996C27 11.9996 26.25 11.2496 26.25 10.4996C26.25 9.59961 26.85 8.99961 27.75 8.99961Z" fill="#464646"/>
</svg>
