<svg width="36" height="36" viewBox="0 0 36 36" fill="none" xmlns="http://www.w3.org/2000/svg">
<path d="M30.9003 17.85L26.4003 12.15H27.0003C27.9003 12.15 28.5003 11.55 28.5003 10.65C28.5003 9.75 27.9003 9.15 27.0003 9.15H25.8003L26.4003 7.95C27.0003 6.9 27.0003 5.7 26.4003 4.65C25.8003 3.6 24.7503 3 23.5503 3H12.4503C11.2503 3 10.2003 3.6 9.60029 4.65C9.00029 5.7 9.00029 6.9 9.60029 7.95L10.2003 9.15H9.00029C8.10029 9.15 7.50029 9.75 7.50029 10.65C7.50029 11.55 8.10029 12.15 9.00029 12.15H22.5003L28.5003 19.65C30.1503 21.75 30.3003 24.45 29.1003 26.7C27.9003 28.65 25.8003 29.85 23.5503 29.85H18.0003H12.3003C10.0503 29.85 7.95029 28.65 6.75029 26.7C5.40029 24.45 5.70029 21.6 7.35029 19.65L10.3503 15.9C10.8003 15.3 10.8003 14.25 10.0503 13.8C9.45029 13.35 8.55029 13.35 8.10029 14.1L5.10029 17.85C2.70029 20.85 2.40029 25.05 4.35029 28.35C5.85029 31.2 9.00029 33 12.3003 33H18.0003H23.7003C27.0003 33 30.1503 31.2 31.8003 28.35C33.7503 24.9 33.3003 20.85 30.9003 17.85ZM12.1503 6.45C12.1503 6.3 12.1503 6.15 12.1503 6.15C12.1503 6.15 12.3003 6 12.4503 6H23.5503C23.7003 6 23.8503 6.15 23.8503 6.15C23.8503 6.15 24.0003 6.3 23.8503 6.45L22.3503 9.15H13.6503L12.1503 6.45Z" fill="#464646"/>
</svg>
