<svg width="180" height="31" viewBox="0 0 180 31" fill="none" xmlns="http://www.w3.org/2000/svg">
<path d="M44.4347 22.5V7.95455H53.7528V10.1634H47.0696V14.1122H53.1136V16.321H47.0696V22.5H44.4347ZM66.3224 7.95455H68.9574V17.4574C68.9574 18.4991 68.7112 19.4152 68.2188 20.206C67.7311 20.9967 67.0445 21.6146 66.1591 22.0597C65.2737 22.5 64.2391 22.7202 63.0554 22.7202C61.867 22.7202 60.83 22.5 59.9446 22.0597C59.0592 21.6146 58.3726 20.9967 57.8849 20.206C57.3973 19.4152 57.1534 18.4991 57.1534 17.4574V7.95455H59.7884V17.2372C59.7884 17.8433 59.9209 18.383 60.1861 18.8565C60.456 19.33 60.8348 19.7017 61.3224 19.9716C61.8101 20.2367 62.3878 20.3693 63.0554 20.3693C63.723 20.3693 64.3007 20.2367 64.7884 19.9716C65.2808 19.7017 65.6596 19.33 65.9247 18.8565C66.1899 18.383 66.3224 17.8433 66.3224 17.2372V7.95455ZM84.7745 7.95455V22.5H82.4308L75.5771 12.5923H75.4563V22.5H72.8214V7.95455H75.1793L82.0259 17.8693H82.1538V7.95455H84.7745ZM93.5746 22.5H88.6456V7.95455H93.674C95.1181 7.95455 96.3587 8.24574 97.3956 8.82812C98.4373 9.40578 99.2375 10.2367 99.7962 11.321C100.355 12.4053 100.634 13.7027 100.634 15.2131C100.634 16.7282 100.353 18.0303 99.7891 19.1193C99.2304 20.2083 98.4231 21.044 97.3672 21.6264C96.3161 22.2088 95.0518 22.5 93.5746 22.5ZM91.2805 20.2202H93.4467C94.46 20.2202 95.3052 20.0355 95.9822 19.6662C96.6593 19.2921 97.1683 18.7358 97.5092 17.9972C97.8501 17.2538 98.0206 16.3258 98.0206 15.2131C98.0206 14.1004 97.8501 13.1771 97.5092 12.4432C97.1683 11.7045 96.6641 11.1529 95.9964 10.7884C95.3336 10.419 94.5097 10.2344 93.5249 10.2344H91.2805V20.2202ZM104.138 22.5V7.95455H109.592C110.71 7.95455 111.647 8.14867 112.405 8.53693C113.167 8.92519 113.742 9.4697 114.131 10.1705C114.524 10.8665 114.72 11.6785 114.72 12.6065C114.72 13.5393 114.521 14.349 114.124 15.0355C113.731 15.7173 113.151 16.2453 112.384 16.6193C111.616 16.9886 110.674 17.1733 109.557 17.1733H105.672V14.9858H109.202C109.855 14.9858 110.39 14.8958 110.807 14.7159C111.223 14.5312 111.531 14.2637 111.73 13.9134C111.934 13.5582 112.036 13.1226 112.036 12.6065C112.036 12.0904 111.934 11.6501 111.73 11.2855C111.527 10.9162 111.216 10.6368 110.8 10.4474C110.383 10.2533 109.846 10.1562 109.188 10.1562H106.773V22.5H104.138ZM111.652 15.9091L115.253 22.5H112.312L108.776 15.9091H111.652ZM120.013 22.5H117.201L122.322 7.95455H125.575L130.702 22.5H127.89L124.005 10.9375H123.891L120.013 22.5ZM120.106 16.7969H127.776V18.9134H120.106V16.7969ZM136.253 7.95455V22.5H133.618V7.95455H136.253ZM148.011 11.9531C147.945 11.3329 147.666 10.8499 147.173 10.5043C146.686 10.1586 146.051 9.9858 145.27 9.9858C144.721 9.9858 144.25 10.0687 143.857 10.2344C143.464 10.4001 143.163 10.625 142.955 10.9091C142.746 11.1932 142.64 11.5175 142.635 11.8821C142.635 12.1851 142.704 12.4479 142.841 12.6705C142.983 12.893 143.175 13.0824 143.416 13.2386C143.658 13.3902 143.925 13.518 144.219 13.6222C144.512 13.7263 144.808 13.8139 145.107 13.8849L146.47 14.2259C147.019 14.3537 147.547 14.5265 148.054 14.7443C148.565 14.9621 149.022 15.2367 149.425 15.5682C149.832 15.8996 150.154 16.2997 150.391 16.7685C150.627 17.2372 150.746 17.7865 150.746 18.4162C150.746 19.2685 150.528 20.0189 150.092 20.6676C149.657 21.3116 149.027 21.8158 148.203 22.1804C147.384 22.5402 146.392 22.7202 145.227 22.7202C144.096 22.7202 143.113 22.545 142.28 22.1946C141.451 21.8442 140.803 21.3329 140.334 20.6605C139.87 19.9882 139.619 19.169 139.581 18.2031H142.173C142.211 18.7098 142.367 19.1312 142.642 19.4673C142.917 19.8035 143.274 20.0545 143.714 20.2202C144.16 20.3859 144.657 20.4688 145.206 20.4688C145.779 20.4688 146.281 20.3835 146.712 20.2131C147.147 20.0379 147.488 19.7964 147.734 19.4886C147.981 19.1761 148.106 18.8116 148.111 18.3949C148.106 18.0161 147.995 17.7036 147.777 17.4574C147.559 17.2064 147.254 16.9981 146.861 16.8324C146.473 16.6619 146.018 16.5104 145.497 16.3778L143.842 15.9517C142.644 15.6439 141.697 15.1776 141.001 14.5526C140.31 13.9228 139.964 13.0871 139.964 12.0455C139.964 11.1884 140.196 10.438 140.661 9.79403C141.129 9.15009 141.766 8.65057 142.571 8.29545C143.376 7.93561 144.287 7.75568 145.305 7.75568C146.338 7.75568 147.242 7.93561 148.018 8.29545C148.8 8.65057 149.413 9.14536 149.858 9.77983C150.303 10.4096 150.533 11.134 150.547 11.9531H148.011ZM154.095 22.5V7.95455H163.555V10.1634H156.73V14.1122H163.065V16.321H156.73V20.2912H163.612V22.5H154.095ZM167.243 22.5V7.95455H172.698C173.815 7.95455 174.753 8.14867 175.51 8.53693C176.273 8.92519 176.848 9.4697 177.236 10.1705C177.629 10.8665 177.826 11.6785 177.826 12.6065C177.826 13.5393 177.627 14.349 177.229 15.0355C176.836 15.7173 176.256 16.2453 175.489 16.6193C174.722 16.9886 173.78 17.1733 172.662 17.1733H168.777V14.9858H172.307C172.961 14.9858 173.496 14.8958 173.912 14.7159C174.329 14.5312 174.637 14.2637 174.836 13.9134C175.039 13.5582 175.141 13.1226 175.141 12.6065C175.141 12.0904 175.039 11.6501 174.836 11.2855C174.632 10.9162 174.322 10.6368 173.905 10.4474C173.489 10.2533 172.951 10.1562 172.293 10.1562H169.878V22.5H167.243ZM174.757 15.9091L178.358 22.5H175.418L171.881 15.9091H174.757Z" fill="white"/>
<path d="M9.60009 25.2368C7.3301 28.2527 3.77477 30.0266 3.58954e-06 30.0266C3.58954e-06 26.2565 1.78996 22.7103 4.82315 20.4712L23.6443 6.57736L9.60009 25.2368Z" fill="white"/>
<path d="M29.0489 0.97876H7.52782C3.37032 0.97876 5.92274e-06 4.34907 5.92274e-06 8.50657L29.0489 0.97876Z" fill="white"/>
<path d="M21.5214 30.0265L29.0489 0.97876H29.0762V22.4717C29.0762 26.6441 25.6938 30.0265 21.5214 30.0265Z" fill="white"/>
<path d="M22.3691 21.0999C20.5921 26.4308 15.6033 30.0265 9.9841 30.0265L29.0762 0.97876L0 20.6168C0 14.979 3.55831 9.95527 8.87658 8.08444L29.0762 0.97876L22.3691 21.0999Z" fill="white"/>
</svg>
