<svg width="120" height="32" viewBox="0 0 120 32" fill="none" xmlns="http://www.w3.org/2000/svg">
<path d="M7.30341 22V10.3636H14.5193V11.875H9.05909V15.4205H14.0023V16.9261H9.05909V22H7.30341Z" fill="white"/>
<path d="M24.9614 10.3636H26.7227V18.017C26.7227 18.8314 26.5314 19.553 26.1489 20.1818C25.7663 20.8068 25.2284 21.2992 24.5352 21.6591C23.842 22.0152 23.0295 22.1932 22.0977 22.1932C21.1697 22.1932 20.3591 22.0152 19.6659 21.6591C18.9727 21.2992 18.4348 20.8068 18.0523 20.1818C17.6697 19.553 17.4784 18.8314 17.4784 18.017V10.3636H19.2341V17.875C19.2341 18.4015 19.3496 18.8693 19.5807 19.2784C19.8155 19.6875 20.147 20.0095 20.575 20.2443C21.003 20.4754 21.5106 20.5909 22.0977 20.5909C22.6886 20.5909 23.1981 20.4754 23.6261 20.2443C24.058 20.0095 24.3875 19.6875 24.6148 19.2784C24.8458 18.8693 24.9614 18.4015 24.9614 17.875V10.3636Z" fill="white"/>
<path d="M39.4673 10.3636V22H37.8537L31.9389 13.4659H31.831V22H30.0753V10.3636H31.7003L37.6207 18.9091H37.7287V10.3636H39.4673Z" fill="white"/>
<path d="M46.5955 22H42.8284V10.3636H46.7148C47.8549 10.3636 48.8341 10.5966 49.6523 11.0625C50.4705 11.5246 51.0973 12.1894 51.533 13.0568C51.9723 13.9205 52.192 14.9564 52.192 16.1648C52.192 17.3769 51.9705 18.4186 51.5273 19.2898C51.0879 20.161 50.4515 20.8314 49.6182 21.3011C48.7848 21.767 47.7773 22 46.5955 22ZM44.5841 20.4659H46.4989C47.3852 20.4659 48.122 20.2992 48.7091 19.9659C49.2962 19.6288 49.7356 19.142 50.0273 18.5057C50.3189 17.8655 50.4648 17.0852 50.4648 16.1648C50.4648 15.2519 50.3189 14.4773 50.0273 13.8409C49.7394 13.2045 49.3095 12.7216 48.7375 12.392C48.1655 12.0625 47.4553 11.8977 46.6068 11.8977H44.5841V20.4659Z" fill="white"/>
<path d="M55.1753 22V10.3636H59.323C60.2245 10.3636 60.9726 10.5189 61.5673 10.8295C62.1658 11.1402 62.6128 11.5701 62.9082 12.1193C63.2037 12.6648 63.3514 13.2955 63.3514 14.0114C63.3514 14.7235 63.2018 15.3504 62.9026 15.892C62.6071 16.4299 62.1601 16.8485 61.5616 17.1477C60.9669 17.447 60.2188 17.5966 59.3173 17.5966H56.1753V16.0852H59.1582C59.7264 16.0852 60.1885 16.0038 60.5446 15.8409C60.9044 15.678 61.1677 15.4413 61.3344 15.1307C61.501 14.8201 61.5844 14.447 61.5844 14.0114C61.5844 13.572 61.4991 13.1913 61.3287 12.8693C61.162 12.5473 60.8988 12.3011 60.5389 12.1307C60.1829 11.9564 59.7151 11.8693 59.1355 11.8693H56.931V22H55.1753ZM60.9196 16.75L63.7946 22H61.7946L58.9764 16.75H60.9196Z" fill="white"/>
<path d="M67.2707 22H65.4071L69.5946 10.3636H71.623L75.8105 22H73.9469L70.6571 12.4773H70.5662L67.2707 22ZM67.5832 17.4432H73.6287V18.9205H67.5832V17.4432Z" fill="white"/>
<path d="M80.0466 10.3636V22H78.2909V10.3636H80.0466Z" fill="white"/>
<path d="M89.75 13.4205C89.6894 12.8826 89.4394 12.4659 89 12.1705C88.5606 11.8712 88.0076 11.7216 87.3409 11.7216C86.8636 11.7216 86.4507 11.7973 86.1023 11.9489C85.7538 12.0966 85.4829 12.3011 85.2898 12.5625C85.1004 12.8201 85.0057 13.1136 85.0057 13.4432C85.0057 13.7197 85.0701 13.9583 85.1989 14.1591C85.3314 14.3598 85.5038 14.5284 85.7159 14.6648C85.9318 14.7973 86.1629 14.9091 86.4091 15C86.6553 15.0871 86.892 15.1591 87.1193 15.2159L88.2557 15.5114C88.6269 15.6023 89.0076 15.7254 89.3977 15.8807C89.7879 16.036 90.1496 16.2405 90.4829 16.4943C90.8163 16.7481 91.0852 17.0625 91.2898 17.4375C91.4981 17.8125 91.6023 18.2614 91.6023 18.7841C91.6023 19.4432 91.4318 20.0284 91.0909 20.5398C90.7538 21.0511 90.2632 21.4545 89.6193 21.75C88.9792 22.0455 88.2045 22.1932 87.2954 22.1932C86.4242 22.1932 85.6704 22.0549 85.0341 21.7784C84.3977 21.5019 83.8996 21.1098 83.5398 20.6023C83.1799 20.0909 82.9811 19.4848 82.9432 18.7841H84.7045C84.7386 19.2045 84.875 19.5549 85.1136 19.8352C85.3561 20.1117 85.6648 20.3182 86.0398 20.4545C86.4186 20.5871 86.8333 20.6534 87.2841 20.6534C87.7803 20.6534 88.2216 20.5758 88.6079 20.4205C88.9981 20.2614 89.3049 20.0417 89.5284 19.7614C89.7519 19.4773 89.8636 19.1458 89.8636 18.767C89.8636 18.4223 89.7651 18.1402 89.5682 17.9205C89.375 17.7008 89.1117 17.5189 88.7784 17.375C88.4489 17.2311 88.0757 17.1042 87.6591 16.9943L86.2841 16.6193C85.3523 16.3655 84.6136 15.9924 84.0682 15.5C83.5265 15.0076 83.2557 14.3561 83.2557 13.5455C83.2557 12.875 83.4375 12.2898 83.8011 11.7898C84.1648 11.2898 84.6572 10.9015 85.2784 10.625C85.8996 10.3447 86.6004 10.2045 87.3807 10.2045C88.1686 10.2045 88.8636 10.3428 89.4659 10.6193C90.072 10.8958 90.5492 11.2765 90.8977 11.7614C91.2462 12.2424 91.428 12.7955 91.4432 13.4205H89.75Z" fill="white"/>
<path d="M94.5003 22V10.3636H101.796V11.875H96.256V15.4205H101.415V16.9261H96.256V20.4886H101.864V22H94.5003Z" fill="white"/>
<path d="M104.941 22V10.3636H109.089C109.99 10.3636 110.738 10.5189 111.333 10.8295C111.931 11.1402 112.378 11.5701 112.674 12.1193C112.969 12.6648 113.117 13.2955 113.117 14.0114C113.117 14.7235 112.967 15.3504 112.668 15.892C112.373 16.4299 111.926 16.8485 111.327 17.1477C110.733 17.447 109.984 17.5966 109.083 17.5966H105.941V16.0852H108.924C109.492 16.0852 109.954 16.0038 110.31 15.8409C110.67 15.678 110.933 15.4413 111.1 15.1307C111.267 14.8201 111.35 14.447 111.35 14.0114C111.35 13.572 111.265 13.1913 111.094 12.8693C110.928 12.5473 110.664 12.3011 110.305 12.1307C109.948 11.9564 109.481 11.8693 108.901 11.8693H106.697V22H104.941ZM110.685 16.75L113.56 22H111.56L108.742 16.75H110.685Z" fill="white"/>
</svg>
