<svg width="202" height="54" viewBox="0 0 202 54" fill="none" xmlns="http://www.w3.org/2000/svg">
<g clip-path="url(#clip0_139_1149)">
<path d="M191.5 0.5H10.5C4.97715 0.5 0.5 4.97715 0.5 10.5V43.5C0.5 49.0228 4.97715 53.5 10.5 53.5H191.5C197.023 53.5 201.5 49.0228 201.5 43.5V10.5C201.5 4.97715 197.023 0.5 191.5 0.5Z" fill="white" fill-opacity="0.1" stroke="white"/>
<path d="M57.1197 15.337C57.0941 15.0792 56.9844 14.8789 56.7905 14.7362C56.5966 14.5934 56.3335 14.522 56.0011 14.522C55.7752 14.522 55.5845 14.554 55.429 14.6179C55.2734 14.6797 55.1541 14.766 55.071 14.8768C54.9901 14.9876 54.9496 15.1133 54.9496 15.2539C54.9453 15.3711 54.9698 15.4734 55.0231 15.5607C55.0785 15.6481 55.1541 15.7237 55.25 15.7876C55.3459 15.8494 55.4567 15.9038 55.5824 15.9506C55.7081 15.9954 55.8423 16.0337 55.9851 16.0657L56.5732 16.2063C56.8587 16.2702 57.1207 16.3555 57.3594 16.462C57.598 16.5685 57.8047 16.6996 57.9794 16.8551C58.1541 17.0107 58.2894 17.1939 58.3853 17.4048C58.4833 17.6158 58.5334 17.8576 58.5355 18.1303C58.5334 18.5309 58.4311 18.8782 58.2287 19.1722C58.0284 19.4641 57.7386 19.6911 57.3594 19.853C56.9822 20.0128 56.5273 20.0927 55.9947 20.0927C55.4663 20.0927 55.006 20.0117 54.614 19.8498C54.2241 19.6879 53.9194 19.4482 53.6999 19.1307C53.4826 18.8111 53.3686 18.4158 53.358 17.945H54.6971C54.712 18.1644 54.7749 18.3477 54.8857 18.4947C54.9986 18.6396 55.1488 18.7493 55.3363 18.8239C55.5259 18.8963 55.7401 18.9325 55.9787 18.9325C56.2131 18.9325 56.4165 18.8984 56.5891 18.8303C56.7638 18.7621 56.8991 18.6673 56.995 18.5458C57.0909 18.4244 57.1388 18.2848 57.1388 18.1271C57.1388 17.9801 57.0952 17.8565 57.0078 17.7564C56.9226 17.6562 56.7969 17.571 56.6307 17.5007C56.4666 17.4304 56.2653 17.3665 56.0266 17.3089L55.3139 17.13C54.7621 16.9957 54.3263 16.7859 54.0067 16.5004C53.6871 16.2148 53.5284 15.8303 53.5305 15.3466C53.5284 14.9503 53.6339 14.604 53.8469 14.3079C54.0621 14.0117 54.3572 13.7805 54.7322 13.6143C55.1072 13.4482 55.5334 13.3651 56.0107 13.3651C56.4964 13.3651 56.9205 13.4482 57.2827 13.6143C57.647 13.7805 57.9304 14.0117 58.1328 14.3079C58.3352 14.604 58.4396 14.9471 58.446 15.337H57.1197ZM63.5093 13.4545H64.8932V17.7053C64.8932 18.1825 64.7792 18.6001 64.5512 18.9581C64.3254 19.3161 64.009 19.5952 63.602 19.7955C63.195 19.9936 62.721 20.0927 62.1798 20.0927C61.6365 20.0927 61.1613 19.9936 60.7544 19.7955C60.3474 19.5952 60.031 19.3161 59.8051 18.9581C59.5793 18.6001 59.4664 18.1825 59.4664 17.7053V13.4545H60.8502V17.587C60.8502 17.8363 60.9046 18.0579 61.0132 18.2518C61.124 18.4457 61.2796 18.598 61.4798 18.7088C61.6801 18.8196 61.9134 18.875 62.1798 18.875C62.4482 18.875 62.6816 18.8196 62.8797 18.7088C63.08 18.598 63.2345 18.4457 63.3431 18.2518C63.4539 18.0579 63.5093 17.8363 63.5093 17.587V13.4545ZM66.0318 20V13.4545H68.6525C69.1341 13.4545 69.5357 13.5259 69.8574 13.6687C70.1792 13.8114 70.421 14.0096 70.5829 14.2631C70.7449 14.5146 70.8258 14.8043 70.8258 15.1325C70.8258 15.3881 70.7747 15.6129 70.6724 15.8068C70.5701 15.9986 70.4295 16.1562 70.2505 16.2798C70.0737 16.4013 69.8713 16.4876 69.6433 16.5387V16.6026C69.8926 16.6133 70.1259 16.6836 70.3432 16.8136C70.5627 16.9435 70.7406 17.1257 70.877 17.3601C71.0133 17.5923 71.0815 17.8693 71.0815 18.1911C71.0815 18.5384 70.9952 18.8484 70.8226 19.1211C70.6522 19.3917 70.3997 19.6058 70.0652 19.7635C69.7306 19.9212 69.3184 20 68.8283 20H66.0318ZM67.4157 18.8686H68.5439C68.9295 18.8686 69.2108 18.7951 69.3876 18.6481C69.5645 18.4989 69.6529 18.3008 69.6529 18.0536C69.6529 17.8725 69.6092 17.7127 69.5218 17.5742C69.4345 17.4357 69.3098 17.3271 69.1479 17.2482C68.9881 17.1694 68.7974 17.13 68.5758 17.13H67.4157V18.8686ZM67.4157 16.1935H68.4416C68.6312 16.1935 68.7995 16.1605 68.9466 16.0945C69.0957 16.0263 69.2129 15.9304 69.2981 15.8068C69.3855 15.6832 69.4292 15.5352 69.4292 15.3626C69.4292 15.1261 69.345 14.9354 69.1767 14.7905C69.0105 14.6456 68.774 14.5732 68.4672 14.5732H67.4157V16.1935ZM75.5328 15.337C75.5072 15.0792 75.3975 14.8789 75.2036 14.7362C75.0097 14.5934 74.7465 14.522 74.4142 14.522C74.1883 14.522 73.9976 14.554 73.8421 14.6179C73.6865 14.6797 73.5672 14.766 73.4841 14.8768C73.4031 14.9876 73.3627 15.1133 73.3627 15.2539C73.3584 15.3711 73.3829 15.4734 73.4362 15.5607C73.4916 15.6481 73.5672 15.7237 73.6631 15.7876C73.759 15.8494 73.8698 15.9038 73.9955 15.9506C74.1212 15.9954 74.2554 16.0337 74.3982 16.0657L74.9862 16.2063C75.2718 16.2702 75.5338 16.3555 75.7725 16.462C76.0111 16.5685 76.2178 16.6996 76.3925 16.8551C76.5672 17.0107 76.7025 17.1939 76.7984 17.4048C76.8964 17.6158 76.9465 17.8576 76.9486 18.1303C76.9465 18.5309 76.8442 18.8782 76.6418 19.1722C76.4415 19.4641 76.1517 19.6911 75.7725 19.853C75.3953 20.0128 74.9404 20.0927 74.4078 20.0927C73.8794 20.0927 73.4191 20.0117 73.0271 19.8498C72.6372 19.6879 72.3325 19.4482 72.113 19.1307C71.8957 18.8111 71.7817 18.4158 71.771 17.945H73.1102C73.1251 18.1644 73.1879 18.3477 73.2987 18.4947C73.4117 18.6396 73.5619 18.7493 73.7494 18.8239C73.939 18.8963 74.1531 18.9325 74.3918 18.9325C74.6262 18.9325 74.8296 18.8984 75.0022 18.8303C75.1769 18.7621 75.3122 18.6673 75.4081 18.5458C75.504 18.4244 75.5519 18.2848 75.5519 18.1271C75.5519 17.9801 75.5083 17.8565 75.4209 17.7564C75.3357 17.6562 75.21 17.571 75.0438 17.5007C74.8797 17.4304 74.6784 17.3665 74.4397 17.3089L73.727 17.13C73.1752 16.9957 72.7394 16.7859 72.4198 16.5004C72.1002 16.2148 71.9415 15.8303 71.9436 15.3466C71.9415 14.9503 72.047 14.604 72.26 14.3079C72.4752 14.0117 72.7703 13.7805 73.1453 13.6143C73.5203 13.4482 73.9465 13.3651 74.4237 13.3651C74.9095 13.3651 75.3335 13.4482 75.6958 13.6143C76.0601 13.7805 76.3435 14.0117 76.5459 14.3079C76.7483 14.604 76.8527 14.9471 76.8591 15.337H75.5328ZM83.6547 15.7461H82.2548C82.2292 15.565 82.177 15.4041 82.0982 15.2635C82.0194 15.1207 81.9181 14.9993 81.7946 14.8991C81.671 14.799 81.5282 14.7223 81.3663 14.669C81.2065 14.6158 81.0328 14.5891 80.8453 14.5891C80.5066 14.5891 80.2115 14.6733 79.96 14.8416C79.7086 15.0078 79.5137 15.2507 79.3752 15.5703C79.2367 15.8878 79.1674 16.2734 79.1674 16.7273C79.1674 17.1939 79.2367 17.5859 79.3752 17.9034C79.5158 18.2209 79.7118 18.4606 79.9632 18.6225C80.2147 18.7844 80.5055 18.8654 80.8358 18.8654C81.0211 18.8654 81.1926 18.8409 81.3503 18.7919C81.5101 18.7429 81.6518 18.6715 81.7754 18.5778C81.899 18.4819 82.0012 18.3658 82.0822 18.2294C82.1653 18.093 82.2228 17.9375 82.2548 17.7628L83.6547 17.7692C83.6184 18.0696 83.5279 18.3594 83.383 18.6385C83.2402 18.9155 83.0474 19.1637 82.8045 19.3832C82.5637 19.6005 82.2761 19.7731 81.9416 19.9009C81.6092 20.0266 81.2331 20.0895 80.8134 20.0895C80.2296 20.0895 79.7076 19.9574 79.2473 19.6932C78.7892 19.429 78.427 19.0465 78.1607 18.5458C77.8965 18.0451 77.7644 17.4389 77.7644 16.7273C77.7644 16.0135 77.8986 15.4062 78.1671 14.9055C78.4355 14.4048 78.7999 14.0234 79.2601 13.7614C79.7203 13.4972 80.2381 13.3651 80.8134 13.3651C81.1926 13.3651 81.5442 13.4183 81.8681 13.5249C82.1941 13.6314 82.4828 13.7869 82.7342 13.9915C82.9856 14.1939 83.1902 14.4421 83.3478 14.7362C83.5076 15.0302 83.6099 15.3668 83.6547 15.7461ZM84.647 20V13.4545H87.2294C87.7237 13.4545 88.1456 13.543 88.495 13.7198C88.8466 13.8945 89.114 14.1428 89.2972 14.4645C89.4826 14.7841 89.5753 15.1602 89.5753 15.5927C89.5753 16.0273 89.4815 16.4013 89.294 16.7145C89.1065 17.0256 88.8349 17.2642 88.479 17.4304C88.1254 17.5966 87.6971 17.6797 87.1942 17.6797H85.4652V16.5675H86.9705C87.2347 16.5675 87.4542 16.5312 87.6289 16.4588C87.8036 16.3864 87.9336 16.2777 88.0188 16.1328C88.1062 15.9879 88.1499 15.8079 88.1499 15.5927C88.1499 15.3754 88.1062 15.1921 88.0188 15.043C87.9336 14.8938 87.8026 14.7809 87.6257 14.7042C87.451 14.6254 87.2305 14.5859 86.9641 14.5859H86.0309V20H84.647ZM88.1818 17.0213L89.8086 20H88.2809L86.6893 17.0213H88.1818ZM91.9371 13.4545V20H90.5533V13.4545H91.9371ZM93.0757 20V13.4545H95.6965C96.178 13.4545 96.5796 13.5259 96.9014 13.6687C97.2231 13.8114 97.4649 14.0096 97.6269 14.2631C97.7888 14.5146 97.8698 14.8043 97.8698 15.1325C97.8698 15.3881 97.8186 15.6129 97.7164 15.8068C97.6141 15.9986 97.4735 16.1562 97.2945 16.2798C97.1176 16.4013 96.9152 16.4876 96.6872 16.5387V16.6026C96.9365 16.6133 97.1698 16.6836 97.3872 16.8136C97.6066 16.9435 97.7845 17.1257 97.9209 17.3601C98.0573 17.5923 98.1254 17.8693 98.1254 18.1911C98.1254 18.5384 98.0392 18.8484 97.8666 19.1211C97.6961 19.3917 97.4436 19.6058 97.1091 19.7635C96.7746 19.9212 96.3623 20 95.8722 20H93.0757ZM94.4596 18.8686H95.5878C95.9735 18.8686 96.2547 18.7951 96.4316 18.6481C96.6084 18.4989 96.6968 18.3008 96.6968 18.0536C96.6968 17.8725 96.6531 17.7127 96.5658 17.5742C96.4784 17.4357 96.3538 17.3271 96.1919 17.2482C96.032 17.1694 95.8414 17.13 95.6198 17.13H94.4596V18.8686ZM94.4596 16.1935H95.4855C95.6752 16.1935 95.8435 16.1605 95.9905 16.0945C96.1396 16.0263 96.2568 15.9304 96.3421 15.8068C96.4294 15.6832 96.4731 15.5352 96.4731 15.3626C96.4731 15.1261 96.3889 14.9354 96.2206 14.7905C96.0544 14.6456 95.8179 14.5732 95.5111 14.5732H94.4596V16.1935ZM99.0259 20V13.4545H103.436V14.5955H100.41V16.1552H103.21V17.2962H100.41V18.859H103.449V20H99.0259ZM112.635 16.7273C112.635 17.4411 112.499 18.0483 112.229 18.549C111.96 19.0497 111.594 19.4322 111.129 19.6964C110.667 19.9585 110.147 20.0895 109.57 20.0895C108.988 20.0895 108.466 19.9574 108.004 19.6932C107.541 19.429 107.176 19.0465 106.907 18.5458C106.639 18.0451 106.505 17.4389 106.505 16.7273C106.505 16.0135 106.639 15.4062 106.907 14.9055C107.176 14.4048 107.541 14.0234 108.004 13.7614C108.466 13.4972 108.988 13.3651 109.57 13.3651C110.147 13.3651 110.667 13.4972 111.129 13.7614C111.594 14.0234 111.96 14.4048 112.229 14.9055C112.499 15.4062 112.635 16.0135 112.635 16.7273ZM111.232 16.7273C111.232 16.2649 111.162 15.875 111.024 15.5575C110.887 15.2401 110.695 14.9993 110.445 14.8352C110.196 14.6712 109.904 14.5891 109.57 14.5891C109.235 14.5891 108.943 14.6712 108.694 14.8352C108.445 14.9993 108.251 15.2401 108.112 15.5575C107.976 15.875 107.908 16.2649 107.908 16.7273C107.908 17.1896 107.976 17.5795 108.112 17.897C108.251 18.2145 108.445 18.4553 108.694 18.6193C108.943 18.7834 109.235 18.8654 109.57 18.8654C109.904 18.8654 110.196 18.7834 110.445 18.6193C110.695 18.4553 110.887 18.2145 111.024 17.897C111.162 17.5795 111.232 17.1896 111.232 16.7273ZM119.134 13.4545V20H117.939L115.092 15.8803H115.044V20H113.66V13.4545H114.874L117.699 17.571H117.757V13.4545H119.134Z" fill="white"/>
<path d="M53.3274 39V23.7273H59.353C60.5114 23.7273 61.4982 23.9485 62.3136 24.391C63.1289 24.8285 63.7504 25.4375 64.1779 26.218C64.6104 26.9936 64.8267 27.8885 64.8267 28.9027C64.8267 29.9169 64.608 30.8118 64.1705 31.5874C63.733 32.3629 63.0991 32.967 62.2688 33.3995C61.4435 33.832 60.4442 34.0483 59.271 34.0483H55.4304V31.4606H58.7489C59.3704 31.4606 59.8825 31.3537 60.2852 31.1399C60.6928 30.9212 60.9961 30.6204 61.195 30.2376C61.3988 29.8498 61.5007 29.4048 61.5007 28.9027C61.5007 28.3956 61.3988 27.9531 61.195 27.5753C60.9961 27.1925 60.6928 26.8967 60.2852 26.6879C59.8775 26.4741 59.3604 26.3672 58.734 26.3672H56.5565V39H53.3274ZM66.8644 39V27.5455H69.9443V29.544H70.0637C70.2725 28.8331 70.623 28.2962 71.1151 27.9332C71.6073 27.5653 72.1741 27.3814 72.8154 27.3814C72.9745 27.3814 73.146 27.3913 73.33 27.4112C73.5139 27.4311 73.6755 27.4585 73.8147 27.4933V30.3121C73.6656 30.2674 73.4593 30.2276 73.1958 30.1928C72.9323 30.158 72.6911 30.1406 72.4724 30.1406C72.0051 30.1406 71.5874 30.2425 71.2195 30.4464C70.8566 30.6452 70.5683 30.9237 70.3545 31.2816C70.1457 31.6396 70.0413 32.0522 70.0413 32.5195V39H66.8644ZM80.0994 39.2237C78.9411 39.2237 77.9393 38.9776 77.0941 38.4854C76.2539 37.9883 75.6051 37.2972 75.1477 36.4123C74.6903 35.5224 74.4616 34.4908 74.4616 33.3175C74.4616 32.1342 74.6903 31.1001 75.1477 30.2152C75.6051 29.3253 76.2539 28.6342 77.0941 28.142C77.9393 27.6449 78.9411 27.3963 80.0994 27.3963C81.2578 27.3963 82.2571 27.6449 83.0973 28.142C83.9425 28.6342 84.5938 29.3253 85.0511 30.2152C85.5085 31.1001 85.7372 32.1342 85.7372 33.3175C85.7372 34.4908 85.5085 35.5224 85.0511 36.4123C84.5938 37.2972 83.9425 37.9883 83.0973 38.4854C82.2571 38.9776 81.2578 39.2237 80.0994 39.2237ZM80.1143 36.7628C80.6413 36.7628 81.0813 36.6136 81.4343 36.3153C81.7873 36.0121 82.0533 35.5994 82.2322 35.0774C82.4162 34.5554 82.5082 33.9613 82.5082 33.2951C82.5082 32.6289 82.4162 32.0348 82.2322 31.5128C82.0533 30.9908 81.7873 30.5781 81.4343 30.2749C81.0813 29.9716 80.6413 29.82 80.1143 29.82C79.5824 29.82 79.1349 29.9716 78.772 30.2749C78.4141 30.5781 78.1431 30.9908 77.9592 31.5128C77.7802 32.0348 77.6907 32.6289 77.6907 33.2951C77.6907 33.9613 77.7802 34.5554 77.9592 35.0774C78.1431 35.5994 78.4141 36.0121 78.772 36.3153C79.1349 36.6136 79.5824 36.7628 80.1143 36.7628ZM92.0238 39.1864C91.1538 39.1864 90.3658 38.9627 89.6598 38.5153C88.9588 38.0629 88.402 37.3991 87.9893 36.5241C87.5817 35.6442 87.3778 34.5653 87.3778 33.2876C87.3778 31.9751 87.5891 30.8839 88.0117 30.0138C88.4343 29.1388 88.9961 28.4851 89.6971 28.0526C90.4031 27.6151 91.1761 27.3963 92.0163 27.3963C92.6577 27.3963 93.1921 27.5057 93.6197 27.7244C94.0522 27.9382 94.4002 28.2067 94.6637 28.5298C94.9322 28.848 95.136 29.1612 95.2752 29.4695H95.3722V23.7273H98.5415V39H95.4094V37.1655H95.2752C95.1261 37.4837 94.9148 37.7994 94.6413 38.1126C94.3729 38.4208 94.0224 38.6768 93.5898 38.8807C93.1623 39.0845 92.6403 39.1864 92.0238 39.1864ZM93.0305 36.6584C93.5426 36.6584 93.9751 36.5192 94.3281 36.2408C94.6861 35.9574 94.9595 35.5621 95.1484 35.055C95.3423 34.5479 95.4393 33.9538 95.4393 33.2727C95.4393 32.5916 95.3448 32 95.1559 31.4979C94.967 30.9957 94.6935 30.608 94.3356 30.3345C93.9776 30.0611 93.5426 29.9244 93.0305 29.9244C92.5085 29.9244 92.0685 30.0661 91.7106 30.3494C91.3526 30.6328 91.0817 31.0256 90.8977 31.5277C90.7138 32.0298 90.6218 32.6115 90.6218 33.2727C90.6218 33.9389 90.7138 34.5281 90.8977 35.0401C91.0866 35.5472 91.3576 35.945 91.7106 36.2333C92.0685 36.5167 92.5085 36.6584 93.0305 36.6584ZM108.499 34.1229V27.5455H111.676V39H108.626V36.9194H108.506C108.248 37.5906 107.818 38.13 107.216 38.5376C106.62 38.9453 105.891 39.1491 105.031 39.1491C104.266 39.1491 103.592 38.9751 103.01 38.6271C102.429 38.2791 101.974 37.7844 101.646 37.1431C101.323 36.5018 101.158 35.7337 101.153 34.8388V27.5455H104.33V34.272C104.335 34.9482 104.517 35.4826 104.875 35.8754C105.233 36.2681 105.712 36.4645 106.314 36.4645C106.697 36.4645 107.055 36.3775 107.388 36.2035C107.721 36.0245 107.989 35.761 108.193 35.413C108.402 35.065 108.504 34.6349 108.499 34.1229ZM119.392 39.2237C118.219 39.2237 117.21 38.9751 116.365 38.478C115.525 37.9759 114.878 37.2798 114.426 36.3899C113.978 35.5 113.755 34.4759 113.755 33.3175C113.755 32.1442 113.981 31.1151 114.433 30.2301C114.891 29.3402 115.539 28.6467 116.38 28.1495C117.22 27.6474 118.219 27.3963 119.377 27.3963C120.377 27.3963 121.252 27.5778 122.002 27.9407C122.753 28.3036 123.347 28.8132 123.785 29.4695C124.222 30.1257 124.463 30.8963 124.508 31.7812H121.51C121.426 31.2095 121.202 30.7496 120.839 30.4016C120.481 30.0487 120.011 29.8722 119.43 29.8722C118.938 29.8722 118.507 30.0064 118.14 30.2749C117.777 30.5384 117.493 30.9237 117.289 31.4308C117.086 31.9379 116.984 32.5518 116.984 33.2727C116.984 34.0036 117.083 34.625 117.282 35.1371C117.486 35.6491 117.772 36.0394 118.14 36.3079C118.507 36.5763 118.938 36.7106 119.43 36.7106C119.793 36.7106 120.118 36.636 120.407 36.4869C120.7 36.3377 120.941 36.1214 121.13 35.8381C121.324 35.5497 121.451 35.2042 121.51 34.8015H124.508C124.458 35.6765 124.22 36.4471 123.792 37.1133C123.37 37.7745 122.786 38.2915 122.04 38.6644C121.294 39.0373 120.412 39.2237 119.392 39.2237ZM132.635 27.5455V29.9318H125.737V27.5455H132.635ZM127.303 24.8011H130.48V35.4801C130.48 35.7734 130.524 36.0021 130.614 36.1662C130.703 36.3253 130.828 36.4371 130.987 36.5018C131.151 36.5664 131.34 36.5987 131.554 36.5987C131.703 36.5987 131.852 36.5863 132.001 36.5614C132.15 36.5316 132.264 36.5092 132.344 36.4943L132.844 38.8583C132.685 38.908 132.461 38.9652 132.172 39.0298C131.884 39.0994 131.534 39.1417 131.121 39.1566C130.355 39.1864 129.684 39.0845 129.108 38.8509C128.536 38.6172 128.091 38.2543 127.773 37.7621C127.454 37.2699 127.298 36.6484 127.303 35.8977V24.8011ZM139.624 39V23.7273H142.853V30.0288H149.408V23.7273H152.63V39H149.408V32.6911H142.853V39H139.624ZM162.578 34.1229V27.5455H165.755V39H162.705V36.9194H162.586C162.327 37.5906 161.897 38.13 161.295 38.5376C160.699 38.9453 159.971 39.1491 159.11 39.1491C158.345 39.1491 157.671 38.9751 157.089 38.6271C156.508 38.2791 156.053 37.7844 155.725 37.1431C155.402 36.5018 155.238 35.7337 155.233 34.8388V27.5455H158.409V34.272C158.414 34.9482 158.596 35.4826 158.954 35.8754C159.312 36.2681 159.792 36.4645 160.393 36.4645C160.776 36.4645 161.134 36.3775 161.467 36.2035C161.8 36.0245 162.069 35.761 162.272 35.413C162.481 35.065 162.583 34.6349 162.578 34.1229ZM171.473 32.3778V39H168.296V27.5455H171.324V29.5664H171.458C171.712 28.9002 172.137 28.3732 172.733 27.9854C173.33 27.5927 174.053 27.3963 174.903 27.3963C175.699 27.3963 176.392 27.5703 176.984 27.9183C177.576 28.2663 178.035 28.7635 178.364 29.4098C178.692 30.0511 178.856 30.8168 178.856 31.7067V39H175.679V32.2734C175.684 31.5724 175.505 31.0256 175.142 30.6328C174.779 30.2351 174.279 30.0362 173.643 30.0362C173.215 30.0362 172.838 30.1282 172.509 30.3121C172.186 30.4961 171.933 30.7646 171.749 31.1175C171.57 31.4656 171.478 31.8857 171.473 32.3778ZM187.452 27.5455V29.9318H180.554V27.5455H187.452ZM182.12 24.8011H185.297V35.4801C185.297 35.7734 185.342 36.0021 185.431 36.1662C185.521 36.3253 185.645 36.4371 185.804 36.5018C185.968 36.5664 186.157 36.5987 186.371 36.5987C186.52 36.5987 186.669 36.5863 186.818 36.5614C186.968 36.5316 187.082 36.5092 187.161 36.4943L187.661 38.8583C187.502 38.908 187.278 38.9652 186.99 39.0298C186.702 39.0994 186.351 39.1417 185.938 39.1566C185.173 39.1864 184.502 39.0845 183.925 38.8509C183.353 38.6172 182.908 38.2543 182.59 37.7621C182.272 37.2699 182.115 36.6484 182.12 35.8977V24.8011Z" fill="white"/>
<path fill-rule="evenodd" clip-rule="evenodd" d="M42 27.5C42 36.0604 35.0604 43 26.5 43C17.9396 43 11 36.0604 11 27.5C11 18.9396 17.9396 12 26.5 12C35.0604 12 42 18.9396 42 27.5Z" fill="white"/>
<path fill-rule="evenodd" clip-rule="evenodd" d="M28.4329 27.9559V27.956H24.0929V23.306H28.4329V23.3059C29.7019 23.3059 30.7306 24.3468 30.7306 25.6309C30.7306 26.9149 29.7019 27.9559 28.4329 27.9559ZM28.4329 20.2059V20.206L21.0294 20.2059V35.7059H24.0929V31.056H28.4329V31.0559C31.3938 31.0559 33.7941 28.627 33.7941 25.6309C33.7941 22.6347 31.3938 20.2059 28.4329 20.2059Z" fill="#EA532A"/>
</g>
<defs>
<clipPath id="clip0_139_1149">
<rect width="202" height="54" fill="white"/>
</clipPath>
</defs>
</svg>
