<svg width="250" height="54" viewBox="0 0 250 54" fill="none" xmlns="http://www.w3.org/2000/svg">
<g clip-path="url(#clip0_139_1149)">
<path d="M239.5 0.5H10.5C4.97715 0.5 0.5 4.97715 0.5 10.5V43.5C0.5 49.0228 4.97715 53.5 10.5 53.5H239.5C245.023 53.5 249.5 49.0228 249.5 43.5V10.5C249.5 4.97715 245.023 0.5 239.5 0.5Z" fill="white" fill-opacity="0.1" stroke="white"/>
<path d="M53.5689 20V13.4545H57.9027V14.5955H54.9528V16.1552H57.6151V17.2962H54.9528V20H53.5689ZM58.8335 20V13.4545H63.2441V14.5955H60.2174V16.1552H63.0171V17.2962H60.2174V18.859H63.2568V20H58.8335ZM65.4725 20H63.9895L66.2491 13.4545H68.0325L70.2889 20H68.8059L67.1664 14.9503H67.1152L65.4725 20ZM65.3798 17.4272H68.8826V18.5075H65.3798V17.4272ZM70.0276 14.5955V13.4545H75.4033V14.5955H73.3994V20H72.0315V14.5955H70.0276ZM80.3316 13.4545H81.7155V17.7053C81.7155 18.1825 81.6015 18.6001 81.3735 18.9581C81.1476 19.3161 80.8312 19.5952 80.4243 19.7955C80.0173 19.9936 79.5432 20.0927 79.002 20.0927C78.4587 20.0927 77.9836 19.9936 77.5766 19.7955C77.1697 19.5952 76.8532 19.3161 76.6274 18.9581C76.4015 18.6001 76.2886 18.1825 76.2886 17.7053V13.4545H77.6725V17.587C77.6725 17.8363 77.7268 18.0579 77.8355 18.2518C77.9463 18.4457 78.1018 18.598 78.3021 18.7088C78.5024 18.8196 78.7357 18.875 79.002 18.875C79.2705 18.875 79.5038 18.8196 79.702 18.7088C79.9023 18.598 80.0567 18.4457 80.1654 18.2518C80.2762 18.0579 80.3316 17.8363 80.3316 17.587V13.4545ZM82.854 20V13.4545H85.4364C85.9308 13.4545 86.3526 13.543 86.7021 13.7198C87.0536 13.8945 87.321 14.1428 87.5043 14.4645C87.6896 14.7841 87.7823 15.1602 87.7823 15.5927C87.7823 16.0273 87.6886 16.4013 87.5011 16.7145C87.3136 17.0256 87.0419 17.2642 86.6861 17.4304C86.3324 17.5966 85.9041 17.6797 85.4013 17.6797H83.6722V16.5675H85.1776C85.4418 16.5675 85.6612 16.5312 85.8359 16.4588C86.0107 16.3864 86.1406 16.2777 86.2259 16.1328C86.3132 15.9879 86.3569 15.8079 86.3569 15.5927C86.3569 15.3754 86.3132 15.1921 86.2259 15.043C86.1406 14.8938 86.0096 14.7809 85.8327 14.7042C85.658 14.6254 85.4375 14.5859 85.1712 14.5859H84.2379V20H82.854ZM86.3888 17.0213L88.0156 20H86.4879L84.8963 17.0213H86.3888ZM88.7603 20V13.4545H93.1708V14.5955H90.1442V16.1552H92.9439V17.2962H90.1442V18.859H93.1836V20H88.7603ZM96.5914 20H94.271V13.4545H96.6105C97.2689 13.4545 97.8357 13.5856 98.3108 13.8477C98.786 14.1076 99.1514 14.4815 99.407 14.9695C99.6649 15.4574 99.7938 16.0412 99.7938 16.7209C99.7938 17.4027 99.6649 17.9886 99.407 18.4787C99.1514 18.9687 98.7838 19.3448 98.3044 19.6069C97.8271 19.869 97.2561 20 96.5914 20ZM95.6549 18.8143H96.5338C96.9429 18.8143 97.287 18.7418 97.5661 18.5969C97.8474 18.4499 98.0583 18.223 98.199 17.9162C98.3417 17.6072 98.4131 17.2088 98.4131 16.7209C98.4131 16.2372 98.3417 15.842 98.199 15.5352C98.0583 15.2283 97.8485 15.0025 97.5693 14.8576C97.2902 14.7127 96.9461 14.6403 96.537 14.6403H95.6549V18.8143ZM108.917 16.7273C108.917 17.4411 108.782 18.0483 108.511 18.549C108.242 19.0497 107.876 19.4322 107.411 19.6964C106.949 19.9585 106.429 20.0895 105.852 20.0895C105.27 20.0895 104.748 19.9574 104.286 19.6932C103.823 19.429 103.458 19.0465 103.19 18.5458C102.921 18.0451 102.787 17.4389 102.787 16.7273C102.787 16.0135 102.921 15.4062 103.19 14.9055C103.458 14.4048 103.823 14.0234 104.286 13.7614C104.748 13.4972 105.27 13.3651 105.852 13.3651C106.429 13.3651 106.949 13.4972 107.411 13.7614C107.876 14.0234 108.242 14.4048 108.511 14.9055C108.782 15.4062 108.917 16.0135 108.917 16.7273ZM107.514 16.7273C107.514 16.2649 107.445 15.875 107.306 15.5575C107.17 15.2401 106.977 14.9993 106.728 14.8352C106.478 14.6712 106.186 14.5891 105.852 14.5891C105.517 14.5891 105.225 14.6712 104.976 14.8352C104.727 14.9993 104.533 15.2401 104.394 15.5575C104.258 15.875 104.19 16.2649 104.19 16.7273C104.19 17.1896 104.258 17.5795 104.394 17.897C104.533 18.2145 104.727 18.4553 104.976 18.6193C105.225 18.7834 105.517 18.8654 105.852 18.8654C106.186 18.8654 106.478 18.7834 106.728 18.6193C106.977 18.4553 107.17 18.2145 107.306 17.897C107.445 17.5795 107.514 17.1896 107.514 16.7273ZM115.417 13.4545V20H114.221L111.374 15.8803H111.326V20H109.942V13.4545H111.156L113.982 17.571H114.039V13.4545H115.417Z" fill="white"/>
<path d="M53.3274 39V23.7273H59.353C60.5114 23.7273 61.4982 23.9485 62.3136 24.391C63.1289 24.8285 63.7504 25.4375 64.1779 26.218C64.6104 26.9936 64.8267 27.8885 64.8267 28.9027C64.8267 29.9169 64.608 30.8118 64.1705 31.5874C63.733 32.3629 63.0991 32.967 62.2688 33.3995C61.4435 33.832 60.4442 34.0483 59.271 34.0483H55.4304V31.4606H58.7489C59.3704 31.4606 59.8825 31.3537 60.2852 31.1399C60.6928 30.9212 60.9961 30.6204 61.195 30.2376C61.3988 29.8498 61.5007 29.4048 61.5007 28.9027C61.5007 28.3956 61.3988 27.9531 61.195 27.5753C60.9961 27.1925 60.6928 26.8967 60.2852 26.6879C59.8775 26.4741 59.3604 26.3672 58.734 26.3672H56.5565V39H53.3274ZM66.8644 39V27.5455H69.9443V29.544H70.0637C70.2725 28.8331 70.623 28.2962 71.1151 27.9332C71.6073 27.5653 72.1741 27.3814 72.8154 27.3814C72.9745 27.3814 73.146 27.3913 73.33 27.4112C73.5139 27.4311 73.6755 27.4585 73.8147 27.4933V30.3121C73.6656 30.2674 73.4593 30.2276 73.1958 30.1928C72.9323 30.158 72.6911 30.1406 72.4724 30.1406C72.0051 30.1406 71.5874 30.2425 71.2195 30.4464C70.8566 30.6452 70.5683 30.9237 70.3545 31.2816C70.1457 31.6396 70.0413 32.0522 70.0413 32.5195V39H66.8644ZM80.0994 39.2237C78.9411 39.2237 77.9393 38.9776 77.0941 38.4854C76.2539 37.9883 75.6051 37.2972 75.1477 36.4123C74.6903 35.5224 74.4616 34.4908 74.4616 33.3175C74.4616 32.1342 74.6903 31.1001 75.1477 30.2152C75.6051 29.3253 76.2539 28.6342 77.0941 28.142C77.9393 27.6449 78.9411 27.3963 80.0994 27.3963C81.2578 27.3963 82.2571 27.6449 83.0973 28.142C83.9425 28.6342 84.5938 29.3253 85.0511 30.2152C85.5085 31.1001 85.7372 32.1342 85.7372 33.3175C85.7372 34.4908 85.5085 35.5224 85.0511 36.4123C84.5938 37.2972 83.9425 37.9883 83.0973 38.4854C82.2571 38.9776 81.2578 39.2237 80.0994 39.2237ZM80.1143 36.7628C80.6413 36.7628 81.0813 36.6136 81.4343 36.3153C81.7873 36.0121 82.0533 35.5994 82.2322 35.0774C82.4162 34.5554 82.5082 33.9613 82.5082 33.2951C82.5082 32.6289 82.4162 32.0348 82.2322 31.5128C82.0533 30.9908 81.7873 30.5781 81.4343 30.2749C81.0813 29.9716 80.6413 29.82 80.1143 29.82C79.5824 29.82 79.1349 29.9716 78.772 30.2749C78.4141 30.5781 78.1431 30.9908 77.9592 31.5128C77.7802 32.0348 77.6907 32.6289 77.6907 33.2951C77.6907 33.9613 77.7802 34.5554 77.9592 35.0774C78.1431 35.5994 78.4141 36.0121 78.772 36.3153C79.1349 36.6136 79.5824 36.7628 80.1143 36.7628ZM92.0238 39.1864C91.1538 39.1864 90.3658 38.9627 89.6598 38.5153C88.9588 38.0629 88.402 37.3991 87.9893 36.5241C87.5817 35.6442 87.3778 34.5653 87.3778 33.2876C87.3778 31.9751 87.5891 30.8839 88.0117 30.0138C88.4343 29.1388 88.9961 28.4851 89.6971 28.0526C90.4031 27.6151 91.1761 27.3963 92.0163 27.3963C92.6577 27.3963 93.1921 27.5057 93.6197 27.7244C94.0522 27.9382 94.4002 28.2067 94.6637 28.5298C94.9322 28.848 95.136 29.1612 95.2752 29.4695H95.3722V23.7273H98.5415V39H95.4094V37.1655H95.2752C95.1261 37.4837 94.9148 37.7994 94.6413 38.1126C94.3729 38.4208 94.0224 38.6768 93.5898 38.8807C93.1623 39.0845 92.6403 39.1864 92.0238 39.1864ZM93.0305 36.6584C93.5426 36.6584 93.9751 36.5192 94.3281 36.2408C94.6861 35.9574 94.9595 35.5621 95.1484 35.055C95.3423 34.5479 95.4393 33.9538 95.4393 33.2727C95.4393 32.5916 95.3448 32 95.1559 31.4979C94.967 30.9957 94.6935 30.608 94.3356 30.3345C93.9776 30.0611 93.5426 29.9244 93.0305 29.9244C92.5085 29.9244 92.0685 30.0661 91.7106 30.3494C91.3526 30.6328 91.0817 31.0256 90.8977 31.5277C90.7138 32.0298 90.6218 32.6115 90.6218 33.2727C90.6218 33.9389 90.7138 34.5281 90.8977 35.0401C91.0866 35.5472 91.3576 35.945 91.7106 36.2333C92.0685 36.5167 92.5085 36.6584 93.0305 36.6584ZM108.499 34.1229V27.5455H111.676V39H108.626V36.9194H108.506C108.248 37.5906 107.818 38.13 107.216 38.5376C106.62 38.9453 105.891 39.1491 105.031 39.1491C104.266 39.1491 103.592 38.9751 103.01 38.6271C102.429 38.2791 101.974 37.7844 101.646 37.1431C101.323 36.5018 101.158 35.7337 101.153 34.8388V27.5455H104.33V34.272C104.335 34.9482 104.517 35.4826 104.875 35.8754C105.233 36.2681 105.712 36.4645 106.314 36.4645C106.697 36.4645 107.055 36.3775 107.388 36.2035C107.721 36.0245 107.989 35.761 108.193 35.413C108.402 35.065 108.504 34.6349 108.499 34.1229ZM119.392 39.2237C118.219 39.2237 117.21 38.9751 116.365 38.478C115.525 37.9759 114.878 37.2798 114.426 36.3899C113.978 35.5 113.755 34.4759 113.755 33.3175C113.755 32.1442 113.981 31.1151 114.433 30.2301C114.891 29.3402 115.539 28.6467 116.38 28.1495C117.22 27.6474 118.219 27.3963 119.377 27.3963C120.377 27.3963 121.252 27.5778 122.002 27.9407C122.753 28.3036 123.347 28.8132 123.785 29.4695C124.222 30.1257 124.463 30.8963 124.508 31.7812H121.51C121.426 31.2095 121.202 30.7496 120.839 30.4016C120.481 30.0487 120.011 29.8722 119.43 29.8722C118.938 29.8722 118.507 30.0064 118.14 30.2749C117.777 30.5384 117.493 30.9237 117.289 31.4308C117.086 31.9379 116.984 32.5518 116.984 33.2727C116.984 34.0036 117.083 34.625 117.282 35.1371C117.486 35.6491 117.772 36.0394 118.14 36.3079C118.507 36.5763 118.938 36.7106 119.43 36.7106C119.793 36.7106 120.118 36.636 120.407 36.4869C120.7 36.3377 120.941 36.1214 121.13 35.8381C121.324 35.5497 121.451 35.2042 121.51 34.8015H124.508C124.458 35.6765 124.22 36.4471 123.792 37.1133C123.37 37.7745 122.786 38.2915 122.04 38.6644C121.294 39.0373 120.412 39.2237 119.392 39.2237ZM132.635 27.5455V29.9318H125.737V27.5455H132.635ZM127.303 24.8011H130.48V35.4801C130.48 35.7734 130.524 36.0021 130.614 36.1662C130.703 36.3253 130.828 36.4371 130.987 36.5018C131.151 36.5664 131.34 36.5987 131.554 36.5987C131.703 36.5987 131.852 36.5863 132.001 36.5614C132.15 36.5316 132.264 36.5092 132.344 36.4943L132.844 38.8583C132.685 38.908 132.461 38.9652 132.172 39.0298C131.884 39.0994 131.534 39.1417 131.121 39.1566C130.355 39.1864 129.684 39.0845 129.108 38.8509C128.536 38.6172 128.091 38.2543 127.773 37.7621C127.454 37.2699 127.298 36.6484 127.303 35.8977V24.8011ZM139.624 39V23.7273H142.853V30.0288H149.408V23.7273H152.63V39H149.408V32.6911H142.853V39H139.624ZM162.578 34.1229V27.5455H165.755V39H162.705V36.9194H162.586C162.327 37.5906 161.897 38.13 161.295 38.5376C160.699 38.9453 159.971 39.1491 159.11 39.1491C158.345 39.1491 157.671 38.9751 157.089 38.6271C156.508 38.2791 156.053 37.7844 155.725 37.1431C155.402 36.5018 155.238 35.7337 155.233 34.8388V27.5455H158.409V34.272C158.414 34.9482 158.596 35.4826 158.954 35.8754C159.312 36.2681 159.792 36.4645 160.393 36.4645C160.776 36.4645 161.134 36.3775 161.467 36.2035C161.8 36.0245 162.069 35.761 162.272 35.413C162.481 35.065 162.583 34.6349 162.578 34.1229ZM171.473 32.3778V39H168.296V27.5455H171.324V29.5664H171.458C171.712 28.9002 172.137 28.3732 172.733 27.9854C173.33 27.5927 174.053 27.3963 174.903 27.3963C175.699 27.3963 176.392 27.5703 176.984 27.9183C177.576 28.2663 178.035 28.7635 178.364 29.4098C178.692 30.0511 178.856 30.8168 178.856 31.7067V39H175.679V32.2734C175.684 31.5724 175.505 31.0256 175.142 30.6328C174.779 30.2351 174.279 30.0362 173.643 30.0362C173.215 30.0362 172.838 30.1282 172.509 30.3121C172.186 30.4961 171.933 30.7646 171.749 31.1175C171.57 31.4656 171.478 31.8857 171.473 32.3778ZM187.452 27.5455V29.9318H180.554V27.5455H187.452ZM182.12 24.8011H185.297V35.4801C185.297 35.7734 185.342 36.0021 185.431 36.1662C185.521 36.3253 185.645 36.4371 185.804 36.5018C185.968 36.5664 186.157 36.5987 186.371 36.5987C186.52 36.5987 186.669 36.5863 186.818 36.5614C186.968 36.5316 187.082 36.5092 187.161 36.4943L187.661 38.8583C187.502 38.908 187.278 38.9652 186.99 39.0298C186.702 39.0994 186.351 39.1417 185.938 39.1566C185.173 39.1864 184.502 39.0845 183.925 38.8509C183.353 38.6172 182.908 38.2543 182.59 37.7621C182.272 37.2699 182.115 36.6484 182.12 35.8977V24.8011Z" fill="white"/>
<path fill-rule="evenodd" clip-rule="evenodd" d="M228.003 23H217L222.501 13L228.003 23Z" fill="white"/>
<path d="M211.68 30.5455V40H209.681V32.4428H209.625L207.46 33.8001V32.0273L209.801 30.5455H211.68ZM217.555 40.1293C217.069 40.1262 216.6 40.0446 216.147 39.8846C215.698 39.7246 215.295 39.4645 214.938 39.1044C214.581 38.7443 214.298 38.2673 214.088 37.6733C213.882 37.0793 213.779 36.3499 213.779 35.4851C213.782 34.6911 213.873 33.9817 214.051 33.3569C214.233 32.729 214.491 32.1966 214.827 31.7596C215.165 31.3226 215.57 30.9902 216.041 30.7624C216.512 30.5316 217.04 30.4162 217.624 30.4162C218.255 30.4162 218.812 30.5393 219.296 30.7855C219.779 31.0286 220.167 31.3595 220.459 31.7781C220.754 32.1966 220.933 32.666 220.995 33.1861H219.023C218.946 32.8568 218.785 32.5982 218.539 32.4105C218.292 32.2228 217.988 32.1289 217.624 32.1289C217.009 32.1289 216.541 32.3967 216.221 32.9322C215.904 33.4677 215.743 34.1955 215.736 35.1158H215.801C215.943 34.8357 216.133 34.5972 216.373 34.4002C216.617 34.2002 216.892 34.0478 217.2 33.9432C217.511 33.8355 217.838 33.7816 218.183 33.7816C218.743 33.7816 219.242 33.9139 219.679 34.1786C220.116 34.4402 220.461 34.8003 220.713 35.2589C220.965 35.7174 221.091 36.2422 221.091 36.8331C221.091 37.4732 220.942 38.0426 220.644 38.5412C220.348 39.0398 219.934 39.4306 219.402 39.7138C218.872 39.9938 218.257 40.1323 217.555 40.1293ZM217.546 38.5597C217.854 38.5597 218.129 38.4858 218.372 38.3381C218.615 38.1903 218.806 37.9903 218.945 37.7379C219.083 37.4856 219.153 37.2024 219.153 36.8885C219.153 36.5746 219.083 36.293 218.945 36.0437C218.809 35.7944 218.622 35.5959 218.382 35.4482C218.142 35.3004 217.868 35.2266 217.56 35.2266C217.329 35.2266 217.115 35.2696 216.918 35.3558C216.724 35.442 216.553 35.562 216.406 35.7159C216.261 35.8698 216.147 36.0483 216.064 36.2514C215.981 36.4515 215.939 36.6654 215.939 36.8931C215.939 37.1978 216.009 37.4763 216.147 37.7287C216.289 37.9811 216.48 38.1826 216.72 38.3335C216.963 38.4843 217.238 38.5597 217.546 38.5597ZM226.137 40.1293C225.651 40.1262 225.182 40.0446 224.729 39.8846C224.28 39.7246 223.877 39.4645 223.52 39.1044C223.163 38.7443 222.88 38.2673 222.67 37.6733C222.464 37.0793 222.361 36.3499 222.361 35.4851C222.364 34.6911 222.455 33.9817 222.633 33.3569C222.815 32.729 223.073 32.1966 223.409 31.7596C223.747 31.3226 224.152 30.9902 224.623 30.7624C225.094 30.5316 225.622 30.4162 226.207 30.4162C226.837 30.4162 227.394 30.5393 227.878 30.7855C228.361 31.0286 228.749 31.3595 229.041 31.7781C229.336 32.1966 229.515 32.666 229.577 33.1861H227.605C227.528 32.8568 227.367 32.5982 227.121 32.4105C226.874 32.2228 226.57 32.1289 226.207 32.1289C225.591 32.1289 225.123 32.3967 224.803 32.9322C224.486 33.4677 224.325 34.1955 224.318 35.1158H224.383C224.525 34.8357 224.715 34.5972 224.955 34.4002C225.199 34.2002 225.474 34.0478 225.782 33.9432C226.093 33.8355 226.42 33.7816 226.765 33.7816C227.325 33.7816 227.824 33.9139 228.261 34.1786C228.698 34.4402 229.043 34.8003 229.295 35.2589C229.547 35.7174 229.673 36.2422 229.673 36.8331C229.673 37.4732 229.524 38.0426 229.226 38.5412C228.93 39.0398 228.516 39.4306 227.984 39.7138C227.455 39.9938 226.839 40.1323 226.137 40.1293ZM226.128 38.5597C226.436 38.5597 226.711 38.4858 226.954 38.3381C227.198 38.1903 227.388 37.9903 227.527 37.7379C227.665 37.4856 227.735 37.2024 227.735 36.8885C227.735 36.5746 227.665 36.293 227.527 36.0437C227.391 35.7944 227.204 35.5959 226.964 35.4482C226.724 35.3004 226.45 35.2266 226.142 35.2266C225.911 35.2266 225.697 35.2696 225.5 35.3558C225.306 35.442 225.135 35.562 224.988 35.7159C224.843 35.8698 224.729 36.0483 224.646 36.2514C224.563 36.4515 224.522 36.6654 224.522 36.8931C224.522 37.1978 224.591 37.4763 224.729 37.7287C224.871 37.9811 225.062 38.1826 225.302 38.3335C225.545 38.4843 225.82 38.5597 226.128 38.5597ZM230.948 38.3381V36.7638L234.895 30.5455H236.252V32.7244H235.449L232.96 36.6623V36.7362H238.569V38.3381H230.948ZM235.486 40V37.858L235.523 37.1609V30.5455H237.397V40H235.486Z" fill="white"/>
<path fill-rule="evenodd" clip-rule="evenodd" d="M42 27.5C42 36.0604 35.0604 43 26.5 43C17.9396 43 11 36.0604 11 27.5C11 18.9396 17.9396 12 26.5 12C35.0604 12 42 18.9396 42 27.5Z" fill="white"/>
<path fill-rule="evenodd" clip-rule="evenodd" d="M28.4329 27.9559V27.956H24.0929V23.306H28.4329V23.3059C29.7019 23.3059 30.7306 24.3468 30.7306 25.6309C30.7306 26.9149 29.7019 27.9559 28.4329 27.9559ZM28.4329 20.2059V20.206L21.0294 20.2059V35.7059H24.0929V31.056H28.4329V31.0559C31.3938 31.0559 33.7941 28.627 33.7941 25.6309C33.7941 22.6347 31.3938 20.2059 28.4329 20.2059Z" fill="#EA532A"/>
</g>
<defs>
<clipPath id="clip0_139_1149">
<rect width="250" height="54" fill="white"/>
</clipPath>
</defs>
</svg>
