<svg width="88" height="24" viewBox="0 0 88 24" fill="none" xmlns="http://www.w3.org/2000/svg">
<g opacity="0.6" clip-path="url(#clip0_1_40)">
<path d="M23.7203 20.3175H30.4091V18.6574H25.5622V16.7066H29.779V15.0465H25.5622V13.1562H30.3485V11.4962H23.7203V20.3175ZM32.2639 20.3175H34.1179V16.8641H38.3832V15.1677H34.1179V13.1925H38.9405V11.4962H32.2639V20.3175ZM44.2895 20.4508C46.6523 20.4508 48.1427 19.1421 48.1427 16.4763V11.4962H46.2888V16.5611C46.2888 18.0031 45.5375 18.7423 44.3137 18.7423C43.0898 18.7423 42.3507 17.9667 42.3507 16.4884V11.4962H40.4846V16.549C40.4846 19.13 41.9387 20.4508 44.2895 20.4508ZM50.2504 20.3175H52.0802V14.5739L56.4668 20.3175H58.0539V11.4962H56.2121V17.0579L51.959 11.4962H50.2504V20.3175ZM60.3085 20.3175H63.7137C66.4887 20.3175 68.4032 18.3908 68.4032 15.9068V15.8826C68.4032 13.3986 66.4887 11.4962 63.7137 11.4962H60.3085V20.3175ZM63.7137 13.1804C65.3493 13.1804 66.4523 14.3073 66.4523 15.9068V15.931C66.4523 17.5305 65.3493 18.6332 63.7137 18.6332H62.1624V13.1804H63.7137ZM70.2603 20.3175H76.9493V18.6574H72.102V16.7066H76.3192V15.0465H72.102V13.1562H76.8886V11.4962H70.2603V20.3175ZM80.6581 15.7978V13.1804H82.6575C83.6388 13.1804 84.2446 13.6288 84.2446 14.477V14.5012C84.2446 15.2767 83.663 15.7978 82.6939 15.7978H80.6581ZM78.8042 20.3175H80.6581V17.4457H82.2694L84.2203 20.3175H86.4017L84.1961 17.1306C85.335 16.7308 86.1227 15.8341 86.1227 14.4043V14.38C86.1227 13.5682 85.8686 12.8775 85.3835 12.3928C84.8019 11.8112 83.9298 11.4962 82.8146 11.4962H78.8042V20.3175Z" fill="white"/>
<path d="M2.08182 15.5467L3.85622 11.7022C3.98331 11.4268 4.37738 11.4348 4.49335 11.715L8.06568 20.3481C8.18653 20.6402 8.60297 20.6326 8.71301 20.3362L12.6867 9.63797C12.7934 9.35066 13.1926 9.33183 13.3259 9.60776L17.6397 18.5386C17.7794 18.8279 18.2029 18.7894 18.2882 18.4798L23.2343 0.527222" stroke="white" stroke-width="2.56394"/>
</g>
<defs>
<clipPath id="clip0_1_40">
<rect width="87" height="23.7273" fill="white" transform="translate(0.5)"/>
</clipPath>
</defs>
</svg>
